<svg width="31" height="24" viewBox="0 0 31 24" fill="none" xmlns="http://www.w3.org/2000/svg">
<path d="M15.0137 2.29081C14.5456 1.12194 13.4051 -0.140419 11.2691 0.0329947C8.54821 0.328789 7.70029 2.93634 8.11157 4.49193C7.02785 3.75812 5.18517 3.43546 3.5768 4.81317C1.50011 6.89487 2.61091 9.71012 3.75252 10.3854C2.49436 10.2689 0.505864 11.1191 0.0659661 13.343C-0.401999 16.1042 1.70288 17.7138 3.75252 17.7138H26.4807C28.8508 17.7138 30.1658 15.6634 30.0183 13.7297C29.7858 11.206 27.4764 10.2377 26.2167 10.4452C27.2692 9.85795 28.6748 7.09961 26.5374 4.93114C24.8408 3.31732 22.6779 3.90454 21.9174 4.60839C22.3274 3.26024 21.6551 0.47345 18.9033 0.0326946C18.713 0.0113981 18.5299 0 18.3554 0C16.2547 0.00029995 15.3102 1.53587 15.0137 2.29081Z" fill="black"/>
<path d="M3.95529 5.25256C2.75536 6.33881 2.31864 8.80011 4.48174 10.2389L13.1113 16.1595L8.92712 6.57337C8.05033 4.31127 5.65168 3.81798 3.95529 5.25256Z" fill="black"/>
<path d="M11.3837 0.59179C9.98096 0.620371 7.87458 2.29079 8.81197 4.84157L13.1396 15.0478L14.6603 4.3128C15.0122 1.64539 12.9936 0.414048 11.3837 0.59179Z" fill="black"/>
<path d="M15.3357 3.90337H16.154C16.154 3.90337 16.591 3.90337 16.6505 4.10952C16.3285 4.3725 15.452 4.40545 15.5684 5.81011L16.944 15.0464L21.2421 4.81334C22.1212 2.52849 20.2759 0.620292 18.639 0.561973C18.5625 0.556489 18.4858 0.552032 18.4063 0.552032C16.9371 0.55199 15.2535 1.61977 15.3357 3.90337Z" fill="black"/>
<path d="M21.069 6.66033L17.0038 16.1314L25.6308 10.1796C27.6195 8.76911 27.2988 6.51399 26.1856 5.39929C25.7189 4.87464 24.862 4.46936 23.9543 4.46936C22.882 4.46915 21.7343 5.03794 21.069 6.66033Z" fill="black"/>
<path d="M24.6649 11.5272L16.563 17.1863H26.5387C28.5854 17.1863 29.9006 15.0761 29.3159 13.1397C28.9243 11.9224 27.7657 10.967 26.421 10.9656C25.8549 10.9658 25.2547 11.1363 24.6649 11.5272Z" fill="black"/>
<path d="M3.72285 17.1862H13.5514L5.44747 11.5272C3.57527 10.3243 1.47014 11.0281 0.71015 13.0243C0.0659431 15.3094 1.6744 17.1862 3.72285 17.1862Z" fill="black"/>
<path d="M0.0317383 21.2819C0.0317383 22.2457 0.819621 24 3.82803 24C6.60171 24 7.47774 22.7273 7.47774 22.1437H5.3304C5.3304 22.1437 5.22841 22.9147 4.01709 22.9147C2.80499 22.9147 2.47719 21.903 2.47719 21.3179C2.47719 20.7351 2.80499 19.778 4.01709 19.778C5.22841 19.778 5.3304 20.4493 5.3304 20.4493H7.47774C7.47774 19.865 6.83499 18.6102 3.82803 18.6102C0.819621 18.6102 0.0317383 20.4786 0.0317383 21.2819Z" fill="black"/>
<path d="M22.5518 21.2819C22.5518 22.2457 23.3405 24 26.3481 24C29.1215 24 29.9978 22.7273 29.9978 22.1437H27.852C27.852 22.1437 27.7495 22.9147 26.5379 22.9147C25.3257 22.9147 24.9976 21.903 24.9976 21.3179C24.9976 20.7351 25.3257 19.778 26.5379 19.778C27.7495 19.778 27.852 20.4493 27.852 20.4493H29.9978C29.9978 19.865 29.3558 18.6102 26.3481 18.6102C23.3405 18.6102 22.5518 20.4786 22.5518 21.2819Z" fill="black"/>
<path d="M13.3464 18.7002V21.9628L10.8473 18.7002H8.03613V23.8679H9.9634V20.5678L12.4187 23.8679H15.2738V18.7002H13.3464Z" fill="black"/>
<path d="M19.5223 22.6334V22.6402H17.9164V21.6913H19.5223V21.6944C19.8652 21.6944 20.1423 21.9051 20.1423 22.1646C20.1423 22.4235 19.8652 22.6334 19.5223 22.6334ZM17.9312 19.7053H19.4785V19.7075C19.7406 19.7075 19.9532 19.8799 19.9532 20.0922C19.9532 20.3053 19.7406 20.4763 19.4785 20.4763V20.4786H17.9312V19.7053ZM21.0995 21.1206C21.4503 21.1206 22.1839 20.7133 22.1839 19.9242C22.1839 18.8007 20.0917 18.7002 19.7707 18.7002H15.9158V23.8679H19.7707C21.6248 23.8679 22.3695 23.2822 22.3695 22.3041C22.3695 21.326 21.0995 21.1206 21.0995 21.1206Z" fill="black"/>
</svg>
