<svg width="44" height="20" viewBox="0 0 44 20" fill="none" xmlns="http://www.w3.org/2000/svg">
<path d="M21.5197 8.43096L11.4718 8.42897V13.1251H14.1622C14.1622 13.2401 12.7827 14.5073 10.7128 14.5073C8.43475 14.5073 5.85645 12.8073 5.80465 10.084C5.75074 7.26167 8.33327 5.41278 10.7128 5.49273C12.6442 5.55869 13.382 6.08038 14.4603 7.08277C14.4603 7.08277 20.5323 7.08677 20.8949 7.08677C20.3421 5.08098 17.3885 0.0380087 10.6346 0.0300135C4.43569 0.0220183 -0.0168658 4.85711 4.80236e-05 9.89608C0.0201332 15.7356 4.80463 20 10.8672 20C17.4244 20 21.0778 14.9051 21.5355 11.1313C21.7047 9.99702 21.5197 8.43096 21.5197 8.43096Z" fill="black"/>
<path d="M37.1695 11.2763L36.6209 10.5867L30.0256 10.5857L32.6937 14.2345C29.8966 14.7532 27.2559 12.5395 27.294 9.96805C27.3331 7.33963 29.5763 5.37981 32.2592 5.3888C35.7297 5.3998 38.141 8.40899 37.1695 11.2763ZM41.1337 15.7856C41.1337 15.7856 43.0925 13.368 43.1009 10.2169C43.1168 4.02862 38.5311 0.0100371 32.1355 4.31557e-05C26.5942 -0.00795204 22.3097 3.81975 21.5285 8.392H21.5275C21.3805 9.32444 21.4017 10.2479 21.5412 11.1703V11.1693C22.2114 15.6726 26.3341 19.9381 32.1725 19.9391C34.7159 19.9391 36.5141 18.9137 36.8397 18.7508L37.4898 19.5533L43.9804 19.5493L41.1337 15.7856" fill="black"/>
</svg>
