<svg width="102" height="20" viewBox="0 0 102 20" fill="none" xmlns="http://www.w3.org/2000/svg">
<path d="M0.139665 13.5754L1.42458 13.3799V1.45251L0 1.28492L0.0837997 0H9.07821L8.85475 3.60335L7.06704 3.54749L6.95531 1.28492H4.16201V6.64805H5.39106L5.67039 5.419L6.89944 5.44693V9.13408H5.67039L5.36313 7.87709H4.13408V13.5475H6.95531L7.20671 11.0894L9.10615 11.1453L9.24581 14.8883H0.0837997L0.139665 13.5754Z" fill="black"/>
<path d="M10.0838 14.9441L10.1397 13.8547L11.1452 13.6592V6.14524L9.97206 6.03351V4.9162L12.933 4.4972L13.1564 5.13966V5.55865C13.8547 4.80446 14.7207 4.35754 15.838 4.35754C17.4581 4.35754 18.6313 5.33519 18.6313 7.26256V13.6592L19.6927 13.8547L19.6369 14.9441H16.1452V7.76536C16.1452 6.73184 15.7821 6.14524 14.8324 6.14524C14.5251 6.14524 14.3017 6.20111 14.0503 6.28491C13.9106 6.42457 13.743 6.59217 13.6313 6.75977V13.6313L14.6927 13.8268L14.6089 14.9162L10.0838 14.9441Z" fill="black"/>
<path d="M66.5363 14.9441L66.5922 13.8547L67.5978 13.6592V6.14524L66.4246 6.03351V4.9162L69.3855 4.4972L69.609 5.13966V5.55865C70.3073 4.80446 71.1732 4.35754 72.2905 4.35754C73.9106 4.35754 75.0838 5.33519 75.0838 7.26256V13.6592L76.1453 13.8547L76.0894 14.9441H72.5978V7.76536C72.5978 6.73184 72.2347 6.14524 71.2849 6.14524C70.9777 6.14524 70.7542 6.20111 70.5028 6.28491C70.3631 6.42457 70.1955 6.59217 70.0838 6.75977V13.6313L71.1453 13.8268L71.0615 14.9162L66.5363 14.9441Z" fill="black"/>
<path d="M25.2514 14.7207C24.8324 14.8883 24.1062 15.0838 23.1564 15.0838C21.8995 15.0838 20.7542 14.5251 20.7542 12.6816V6.08938L19.5531 5.89385L19.609 4.581L20.9497 4.52513L21.5363 2.51396L23.2682 2.43016V4.581H25.1117L24.9721 5.89385L23.2682 6.08938V12.6536C23.2682 13.1844 23.5754 13.5475 24.1341 13.5475H25.1397L25.2514 14.7207Z" fill="black"/>
<path d="M95.1676 14.9441L95.2235 13.8548L96.1732 13.6313V6.11732L95.0559 6.00559V4.88827L98.1285 4.46928L98.324 5.19554V5.44693C99.1341 4.86034 100.223 4.46928 101.508 4.46928L101.955 4.86034L101.648 7.68157L99.9721 7.6257L99.8045 6.11732C99.4134 6.17319 99.0503 6.28492 98.7151 6.50838V13.6313L99.7765 13.8548L99.6927 14.9441H95.1676Z" fill="black"/>
<path d="M51.1732 14.9441L51.229 13.8548L52.1788 13.6313V6.11732L51.0614 6.00559V4.88827L54.1341 4.46928L54.3296 5.19554V5.44693C55.1397 4.86034 56.229 4.46928 57.514 4.46928L57.9609 4.86034L57.6536 7.68157L55.9776 7.6257L55.81 6.11732C55.419 6.17319 55.0559 6.28492 54.7207 6.50838V13.6313L55.7821 13.8548L55.6983 14.9441H51.1732Z" fill="black"/>
<path d="M26.0056 14.9441L26.0615 13.8548L27.0112 13.6313V6.11732L25.8939 6.00559V4.88827L28.9665 4.46928L29.162 5.19554V5.44693C29.9721 4.86034 31.0615 4.46928 32.3464 4.46928L32.7933 4.86034L32.486 7.68157L30.8101 7.6257L30.6425 6.11732C30.2514 6.17319 29.8883 6.28492 29.5531 6.50838V13.6313L30.6145 13.8548L30.5307 14.9441H26.0056Z" fill="black"/>
<path d="M35.6983 10.3631C35.6983 12.1509 36.4805 13.5475 38.0447 13.5475C38.8548 13.5475 39.4693 13.3799 40.2235 13.0168L40.6425 13.9944C39.8883 14.6089 38.743 15.0838 37.3464 15.0838C34.609 15.0838 33.0447 12.7374 33.0447 9.69275C33.0447 7.12292 34.19 4.30169 37.2905 4.30169C40.0279 4.30169 41.0335 6.81565 41.0335 9.63688L40.7821 10.3073L35.6983 10.3631ZM35.6425 9.16202L38.771 9.02236C38.7151 7.76537 38.4637 5.78213 37.2347 5.78213C36.9274 5.78213 36.7319 5.838 36.3687 6.03353C35.838 6.87152 35.6425 8.43577 35.6425 9.16202Z" fill="black"/>
<path d="M79.1061 10.3631C79.1061 12.1509 79.8883 13.5475 81.4525 13.5475C82.2626 13.5475 82.8771 13.3799 83.6313 13.0168L84.0503 13.9944C83.2961 14.6089 82.1508 15.0838 80.7542 15.0838C78.0167 15.0838 76.4525 12.7374 76.4525 9.69275C76.4525 7.12292 77.5977 4.30169 80.6983 4.30169C83.4357 4.30169 84.4413 6.81565 84.4413 9.63688L84.1899 10.3073L79.1061 10.3631ZM79.0503 9.16202L82.1788 9.02236C82.1229 7.76537 81.8715 5.78213 80.6424 5.78213C80.3352 5.78213 80.1396 5.838 79.7765 6.03353C79.2458 6.87152 79.0503 8.43577 79.0503 9.16202Z" fill="black"/>
<path d="M60.838 10.3631C60.838 12.1509 61.6201 13.5475 63.1843 13.5475C63.9944 13.5475 64.6089 13.3799 65.3631 13.0168L65.7821 13.9944C65.0279 14.6089 63.8827 15.0838 62.486 15.0838C59.7486 15.0838 58.1843 12.7374 58.1843 9.69275C58.1843 7.12292 59.3296 4.30169 62.4302 4.30169C65.1676 4.30169 66.1732 6.81565 66.1732 9.63688L65.9218 10.3073L60.838 10.3631ZM60.81 9.16202L63.9385 9.02236C63.8827 7.76537 63.6313 5.78213 62.4022 5.78213C62.095 5.78213 61.8994 5.838 61.5363 6.03353C61.0056 6.87152 60.7821 8.43577 60.81 9.16202Z" fill="black"/>
<path d="M91.5084 14.9441L91.257 14.0503C90.5587 14.6927 89.8883 15.0838 88.8548 15.0838C87.2347 15.0838 85.8101 14.2737 85.8101 12.067V5.83798L84.6369 5.72625V4.7486L88.0447 4.35754L88.2961 5.25139V11.7598C88.2961 12.905 88.771 13.4916 89.6648 13.4916C89.9162 13.4916 90.2514 13.4637 90.5587 13.352C90.7263 13.1844 90.8939 12.9888 91.0335 12.7654V5.86591L89.8324 5.75418V4.77653L93.2682 4.38547L93.5196 5.27933V13.6592L94.581 13.8547L94.4414 14.9441H91.5084Z" fill="black"/>
<path d="M46.1453 13.5754C45.6145 13.5754 45.1676 13.4916 44.8324 13.2961V6.70392C44.9721 6.48046 45.1397 6.28493 45.3073 6.0894C45.6145 5.97767 45.8939 5.94973 46.2291 5.94973C47.6257 5.94973 47.8771 7.37431 47.8771 9.91621C47.8771 12.3743 47.514 13.0447 47.4022 13.324C47.0391 13.4916 46.648 13.5754 46.1453 13.5754ZM50.3352 9.44135C50.3352 6.28493 49.4134 4.30169 47.067 4.30169C45.5307 4.30169 44.7765 5.19554 44.4972 5.55867V5.25141L44.2458 4.35755L41.1732 4.77655V5.86593L42.3464 6.0056V18.743L41.3408 18.9386L41.2849 20H45.7821L45.8659 18.9386L44.8045 18.743V14.7207C45.2235 14.9721 45.838 15.1117 46.4805 15.1117C50.3073 15.0838 50.3352 11.2011 50.3352 9.44135Z" fill="black"/>
<path d="M101.145 13.9665C101.453 13.9665 101.648 14.162 101.648 14.4693C101.648 14.7766 101.453 14.9721 101.145 14.9721C100.838 14.9721 100.642 14.7766 100.642 14.4693C100.642 14.19 100.838 13.9665 101.145 13.9665ZM101.145 14.8324C101.341 14.8324 101.508 14.6928 101.508 14.4693C101.508 14.2458 101.369 14.1062 101.145 14.1062C100.95 14.1062 100.782 14.2458 100.782 14.4693C100.782 14.6928 100.95 14.8324 101.145 14.8324ZM100.922 14.6928V14.609L100.978 14.581V14.2738H100.922V14.19H101.173C101.285 14.19 101.369 14.2179 101.369 14.3296C101.369 14.4134 101.341 14.4414 101.285 14.4693C101.313 14.5252 101.341 14.5531 101.369 14.581H101.397V14.6648H101.257C101.229 14.6369 101.173 14.581 101.145 14.4972H101.117V14.581L101.173 14.609V14.6928H100.922V14.6928ZM101.117 14.3017V14.4414H101.145C101.201 14.4414 101.229 14.4134 101.229 14.3576C101.229 14.3017 101.201 14.3017 101.117 14.3017Z" fill="black"/>
</svg>
