<svg width="77" height="20" viewBox="0 0 77 20" fill="none" xmlns="http://www.w3.org/2000/svg">
<path d="M37.0344 5.41461C36.3937 5.41461 36.0424 5.47661 35.5257 5.72461C34.5751 6.15861 33.8724 6.86127 33.2524 7.99792L33.0458 8.34926L33.0664 7.70859C33.0871 7.35726 33.1078 6.7166 33.1284 6.26194L33.1491 5.45595H33.0044C32.8391 5.45595 27.3831 6.55127 27.2178 6.61327C27.1145 6.6546 27.0938 6.69593 27.0938 6.9646C27.0938 7.23326 27.1145 7.2746 27.2178 7.29526C27.2798 7.31593 27.5278 7.35726 27.7758 7.3986C28.2511 7.48126 28.3958 7.56393 28.6025 7.83259C28.9745 8.30792 29.0365 9.17592 29.0365 12.7926C29.0365 15.7479 28.9745 17.2358 28.8298 17.6905C28.6645 18.2485 28.3545 18.5378 27.8171 18.6412C27.6518 18.6825 27.4245 18.7238 27.3211 18.7445L27.1351 18.7858L27.1145 19.1578C27.0938 19.4265 27.1145 19.5505 27.1765 19.5918C27.2178 19.6125 29.0778 19.6332 31.3098 19.6332L35.3811 19.6125L35.4017 19.1785C35.4017 18.9512 35.4017 18.7445 35.3811 18.7445C35.0711 18.7445 34.0998 18.6205 33.9344 18.5378C33.4798 18.3518 33.2524 17.9385 33.1491 17.0912C33.0458 16.1199 32.9631 13.6605 33.0044 11.6766C33.0458 9.65125 33.0458 9.65124 33.1698 9.50658C33.4591 9.19658 34.2031 8.94858 34.8851 8.94858C35.4224 8.94858 35.9804 9.09325 36.5591 9.36191C36.8484 9.50658 37.0964 9.58925 37.1377 9.58925C37.2204 9.56858 38.543 6.03461 38.543 5.86928C38.543 5.66261 37.7784 5.41461 37.0344 5.41461Z" fill="black"/>
<path d="M27.1145 11.5526C26.8251 9.11392 25.7918 7.3366 24.0765 6.32394C22.1752 5.20795 19.3025 5.14595 17.2565 6.17928C15.7686 6.92327 14.5699 8.34926 14.0326 10.0026C13.4746 11.6972 13.4746 13.9292 14.0326 15.6445C14.3839 16.7605 14.8592 17.5665 15.6032 18.2898C16.4919 19.1785 17.6492 19.7365 18.9925 19.9225C19.4679 19.9845 20.9765 19.9845 21.4725 19.9225C21.6998 19.8812 22.1132 19.7985 22.3612 19.7365C24.7792 19.0338 26.4325 17.1739 26.9905 14.5285C27.1351 13.8672 27.1971 12.2966 27.1145 11.5526ZM20.9972 18.8685C19.4885 19.3232 18.4139 17.8765 18.0005 14.8799C17.8559 13.9086 17.8765 11.2632 18.0005 10.1679C18.2899 7.74993 19.0339 6.53061 20.2119 6.53061C20.7492 6.53061 21.0385 6.65461 21.4518 7.06794C22.4438 8.05993 22.8985 9.96125 22.8985 12.9372C22.8985 15.3139 22.6505 16.8019 22.1338 17.8145C21.8652 18.2898 21.3898 18.7445 20.9972 18.8685Z" fill="black"/>
<path d="M7.27461 1.83932H9.01059C10.9946 1.83932 11.3252 1.88065 12.0279 2.23198C13.0406 2.72798 13.7846 3.71997 14.4459 5.45596C14.7145 6.15862 14.7145 6.15862 15.2932 5.97262L15.6859 5.84862L15.6445 3.30664C15.6239 1.90132 15.5825 0.661327 15.5825 0.557995L15.5412 0.330665L7.9566 0.309998C3.78197 0.309998 0.289331 0.309999 0.185999 0.330665L0 0.371998L0.0206662 0.82666L0.0413324 1.28132L0.619995 1.34332C1.36399 1.42599 1.81865 1.65332 2.08732 2.02532C2.68664 2.89331 2.78998 4.09197 2.78998 9.73392C2.78998 15.7479 2.66598 17.2152 2.08732 17.9592C1.79798 18.3519 1.54999 18.4759 0.867992 18.5998C-0.0206672 18.7652 0.0206662 18.7445 0.0206662 19.1992C0.0206662 19.4472 0.0413333 19.5918 0.0826663 19.6125C0.185999 19.6538 9.87859 19.6538 9.98192 19.6125C10.1059 19.5712 10.1059 18.8478 9.98192 18.7858C9.91992 18.7652 9.60992 18.7032 9.25859 18.6412C8.90726 18.5792 8.53526 18.4965 8.41126 18.4552C7.7706 18.1865 7.41927 17.4219 7.29527 16.0372C7.19194 15.0452 7.12994 13.2059 7.12994 11.8626V10.6226L7.72927 10.6432C8.98993 10.6846 9.63059 10.7466 9.89925 10.8706C10.4779 11.1186 10.9326 11.8212 11.1599 12.8132L11.2839 13.3299L11.7386 13.3506L12.1932 13.3712V6.75794L11.7386 6.77861L11.2839 6.79928L11.1599 7.31594C10.9119 8.3286 10.4986 8.94859 9.87859 9.23792C9.63059 9.36192 9.44459 9.38259 8.86593 9.42392C8.47326 9.44459 7.91527 9.46526 7.6466 9.46526H7.12994V7.8326C7.12994 6.19995 7.21261 2.70731 7.27461 2.16998V1.83932Z" fill="black"/>
<path d="M76.1147 13.4952C75.66 12.5653 74.792 11.9453 73.0147 11.2013C71.568 10.6019 70.824 10.1679 70.3901 9.69261C70.0181 9.29995 69.9147 8.96928 69.9561 8.39062C69.9974 7.85329 70.1214 7.52263 70.4727 7.15063C70.9067 6.6753 71.5267 6.50997 72.25 6.6753C73.428 6.9233 74.1927 7.74996 74.854 9.48595C75.0813 10.1059 75.1227 10.1266 75.536 9.96127L75.8047 9.85794V9.13461C75.8047 8.74195 75.784 7.91529 75.7633 7.2953L75.722 6.17931L75.5153 6.09664C74.42 5.64198 72.3534 5.35265 71.01 5.47664C69.4807 5.62131 68.3441 6.09664 67.4761 7.00597C66.6081 7.89463 66.2154 8.94862 66.2981 10.1886C66.3601 11.2219 66.6494 11.9453 67.2901 12.6066C67.8687 13.2059 68.3647 13.4952 69.7907 14.0532C72.064 14.9419 72.684 15.4792 72.6634 16.5746C72.6634 17.5045 72.1674 18.1865 71.2787 18.4965C70.948 18.5999 70.142 18.5999 69.7081 18.4965C68.5714 18.2072 67.7034 17.2152 66.9594 15.3966L66.7734 14.9212L66.5461 14.9419C66.4221 14.9419 66.2568 14.9832 66.1741 15.0246L66.0294 15.1072L66.0501 15.9132C66.0501 16.3472 66.0707 17.2772 66.0914 17.9592L66.1328 19.2199L66.3808 19.3232C66.8974 19.5505 68.4681 19.8812 69.4394 19.9845C69.5634 20.0052 70.2247 20.0052 70.9274 19.9845C72.126 19.9639 72.2294 19.9639 72.8287 19.7985C74.6267 19.3232 75.784 18.3312 76.3007 16.8226C76.466 16.3472 76.4867 16.2232 76.5073 15.5206C76.4867 14.5699 76.404 14.0946 76.1147 13.4952Z" fill="black"/>
<path d="M62.2475 5.9726C60.7388 5.20794 58.4035 5.26994 56.7089 6.0966C55.0969 6.88193 53.9809 8.20458 53.3609 10.0646C53.0302 11.0359 52.9269 11.8006 52.9682 13.0612C52.9889 13.8465 53.0302 14.2599 53.1129 14.6319C53.7536 17.4838 55.6962 19.4058 58.4242 19.9018C59.0235 20.0052 60.3875 20.0052 60.9868 19.9018C61.8548 19.7572 62.8468 19.3645 63.4875 18.9305C64.2521 18.4138 65.0375 17.6285 65.0375 17.3805C65.0375 17.2358 64.7688 16.8845 64.6655 16.8845C64.6241 16.8845 64.3968 16.9878 64.1901 17.1325C63.4461 17.6285 62.7228 17.8145 61.7102 17.8145C60.3255 17.8145 59.4575 17.4632 58.5688 16.5745C58.1762 16.1819 58.0108 15.9752 57.8249 15.5825C57.3909 14.7352 57.1429 13.7432 57.1015 12.6272L57.0809 12.1519L61.1522 12.1312L65.2235 12.1106L65.2441 11.8419C65.2441 11.6972 65.2441 11.3046 65.2028 10.9532C64.9548 8.53525 63.9421 6.8406 62.2475 5.9726ZM58.1555 10.9946L57.1222 11.0152V10.7879C57.1222 10.6639 57.1635 10.3332 57.2049 10.0646C57.5562 7.85325 58.3828 6.5306 59.4162 6.5306C60.3668 6.5306 60.9455 7.83259 61.0695 10.2299L61.1108 10.9119L60.1602 10.9532C59.6228 10.9532 58.7135 10.9739 58.1555 10.9946Z" fill="black"/>
<path d="M47.5123 5.72462C47.1816 5.66262 46.8923 5.64196 46.2723 5.66262C45.3216 5.70395 44.681 5.82795 43.9576 6.15862C43.7303 6.26195 43.5236 6.36528 43.503 6.36528C43.4823 6.36528 43.4823 4.93929 43.503 3.18264C43.5236 0.702663 43.5236 0 43.4616 0C43.2756 0 37.675 1.07466 37.613 1.11599C37.5717 1.15733 37.551 1.28132 37.551 1.44665C37.5717 1.75665 37.5304 1.73599 38.2124 1.88065C38.419 1.92199 38.667 2.02532 38.7497 2.08732C38.977 2.25265 39.163 2.60398 39.3077 3.09997C39.411 3.49264 39.4317 3.78197 39.473 6.46861C39.5143 9.21726 39.5143 12.0486 39.4317 17.2152L39.3903 19.3645L39.783 19.4472C40.3617 19.5712 42.0357 19.8605 42.573 19.9225C43.379 20.0052 45.239 19.9845 45.8383 19.9018C48.4216 19.5092 50.3643 18.0212 51.2736 15.7272C51.5216 15.1279 51.7489 14.1772 51.8316 13.4952C51.9349 12.6892 51.8729 11.0566 51.7282 10.3952C51.1909 7.8946 49.6203 6.15862 47.5123 5.72462ZM43.5856 18.6825C43.5236 18.4965 43.441 12.0486 43.4616 9.48592L43.4823 7.48127L43.8543 7.37794C44.1023 7.31594 44.3916 7.27461 44.7223 7.27461C45.1976 7.27461 45.239 7.29527 45.6316 7.48127C46.5823 7.9566 47.2229 9.11393 47.5329 10.8706C47.6363 11.5319 47.6569 13.3092 47.5536 14.0946C47.3056 16.0165 46.6856 17.5665 45.8383 18.3105C45.5076 18.5998 45.1976 18.7652 44.805 18.8478C44.5156 18.9098 44.433 18.9098 43.8956 18.8685C43.689 18.8272 43.6476 18.8065 43.5856 18.6825Z" fill="black"/>
</svg>
