<svg width="221" height="20" viewBox="0 0 221 20" fill="none" xmlns="http://www.w3.org/2000/svg">
<path fill-rule="evenodd" clip-rule="evenodd" d="M2.50731 19.1878H4.61344L5.7668 18.9848L6.36856 18.7817L6.519 18.2234L6.71958 14.3655V4.41625L6.519 0.406093H4.41286L3.2595 0.60914L2.30672 0.964468L1.75511 1.52285L1.15336 2.13198L0.802337 2.8934L0.601752 3.65483L0.200585 5.93909H0V0H17.2503V5.93909L16.8992 3.65483L16.4981 2.33503L15.9465 1.52285L15.1441 0.964468L14.1914 0.60914L12.8876 0.406093H10.3802V18.4264L10.7814 18.7817L11.7342 18.9848L12.8876 19.1878H14.3919L14.5925 19.5432H2.50731V19.1878Z" fill="black"/>
<path fill-rule="evenodd" clip-rule="evenodd" d="M31.2911 6.14214H31.6422V6.54823H31.2911H32.9961L33.3973 6.75127L33.5979 6.95432L33.7984 11.5736V17.4619L33.5979 18.7817L33.3973 18.9848L32.9961 19.1878H31.2911V19.3909H31.6422V19.797H31.2911L37.0579 19.5939L44.5297 19.797V14.0609H44.1787L43.9781 15.5838C43.2761 19.6954 40.0166 19.5431 36.7069 19.0355H36.5063V17.1066L36.3058 12.6904H38.2113L38.8131 12.8934L39.2142 13.2995L39.6154 13.7056L40.0166 14.0609L40.2172 14.8223V16.5482H40.6183V8.83249H40.2172V10.5584C39.8661 12.2335 38.7629 12.0305 37.3588 12.2843H36.4061L36.6066 8.27411V6.75127L37.0078 6.54823C40.6183 6.70051 42.4236 5.78681 43.5268 10L43.7274 11.5228H44.1286V6.14214H31.2911V6.14214ZM22.666 19.3401V19.7462L19.0053 19.5431L14.9937 19.7462V19.3401L16.8992 19.1371L17.501 18.934L17.7015 18.731V6.8528L17.501 6.64975L16.8992 6.44671H14.9937V6.04062H22.666V6.44671H21.1115L20.5097 6.64975L20.3091 6.8528L20.1086 8.37564V12.3858H26.427V7.96955L26.2264 6.80204L26.0258 6.59899L25.6748 6.39594H23.9698V5.98985H31.241H31.0404V6.39594H31.241H29.6865L29.2853 6.59899L29.0847 6.80204L28.8841 8.12184V17.1066L29.0847 18.8325H29.2853L29.6865 19.0355L31.241 19.2386V19.0355H31.0404V19.5939H31.241L27.5803 19.3909L23.9197 19.5939V19.1878L25.424 18.9848H25.9757L26.1762 18.7817L26.3768 17.0558V12.8426H20.0584V17.0558L20.259 18.5787L20.6602 18.7817L21.2118 18.9848L22.666 19.3401Z" fill="black"/>
<path fill-rule="evenodd" clip-rule="evenodd" d="M143.067 19.1878H143.267V19.5432H143.067V19.1878ZM143.067 15.1269L143.669 16.6497C145.875 21.0152 152.996 21.3198 153.999 15.33V14.0102H153.648V15.33L153.447 16.2944C151.893 20.6599 145.574 21.1675 145.574 14.3655L145.374 12.8426L145.574 11.3198L145.775 10L145.975 8.83249L146.326 7.86803L146.928 7.10661L147.48 6.54823L148.232 6.34518L148.984 6.14213C151.692 6.80203 150.739 6.29442 152.244 8.4264L152.645 9.39087L152.845 10.5584L153.046 11.9289H153.447V5.58376H153.247L152.845 6.54823L152.294 7.30965H152.093L151.341 6.54823L150.589 6.14213L149.837 5.93909L149.084 5.73604L147.73 5.93909L146.577 6.34518L145.624 6.90356L144.672 7.86803L143.719 9.18782L143.117 10.9137V15.1269H143.067ZM143.067 6.14213H143.267V6.54823H143.067V6.14213ZM143.067 6.14213H135.595V6.54823H137.35L137.902 6.75127L138.102 6.95432V8.27411L138.303 11.5228L138.102 16.7005V18.8325L137.902 19.0355L137.35 19.2386H135.595V19.5939H143.067V19.2386L141.512 19.0355H140.961L140.76 18.8325V17.1066L140.56 12.6904L140.76 8.6802V6.95432L140.961 6.75127L141.512 6.54823H143.067V6.14213ZM143.067 10.9137V15.1269L142.866 14.1624V11.8782L143.067 10.9137ZM118.896 19.5432V19.3401L120.05 19.1371L120.601 18.7817L121.153 18.0203V16.8528L120.952 9.18782V7.86803L120.551 7.10661L120 6.75127L118.846 6.54823V6.14213H124.112L126.97 15.736H127.171L130.229 6.14213H135.595V6.54823H133.89L133.338 6.75127L133.138 6.95432V18.8325L133.338 19.0355L133.89 19.2386H135.595V19.5939H127.923V19.2386H130.229L130.631 18.8833V7.00508H130.229L128.324 13.2995L127.371 16.3452L126.619 19.5939H125.867L121.855 6.75127H121.454L121.654 15.3807V17.3096L122.005 18.4772L122.407 18.8833L122.958 19.0863L123.51 19.2893H124.463V19.6447H118.896V19.5432ZM118.896 14.7716L119.097 13.8071L119.247 12.8426L119.097 11.8782L118.896 10.9137V14.7716ZM118.746 6.54823H118.947V6.14213H118.746V6.54823ZM118.896 10.9137L118.495 9.59391C117.743 7.7665 115.938 6.09138 113.882 5.93909L112.929 5.73604V6.09138L113.731 6.29442L114.484 6.49746L115.035 7.05584L115.436 8.0203L115.787 8.98478L116.189 10.3046L116.389 11.6244V14.6701L116.189 15.9899L115.787 16.9543L115.436 17.9188L115.035 18.4772L114.484 19.0355L113.731 19.2386L112.929 19.4416V19.8477L114.082 19.6447C116.59 19.0863 118.345 17.1574 118.896 14.6701V10.9137V10.9137ZM118.896 19.3401H118.696V19.5432H118.896V19.3401ZM112.979 5.73604V6.09138L112.026 6.29442L111.475 6.49746C109.67 8.22335 109.92 8.73096 109.569 11.066V14.1117C109.82 15.9898 109.92 17.7665 111.475 19.0863L112.227 19.2893L112.979 19.4924V19.8985H112.779L111.625 19.6954L110.472 19.2893L109.319 18.731L108.366 17.7665L107.814 17.0051L107.212 15.8376V9.89848L107.814 8.57868L109.72 6.64975L110.672 6.24366L111.826 5.83757L112.979 5.73604ZM107.814 6.14213H107.212V6.54823H107.814V6.14213ZM107.212 6.14213H102.047V6.54823H102.8L103.552 6.75127L104.153 6.95432L104.504 7.30965L104.906 8.47716V15.5838L97.8351 6.1929H93.7732V6.59899H94.5756L95.1272 6.80203L95.7289 7.15736L96.1301 7.91878L96.3307 15.5838V16.1421L96.1301 17.5127L95.7289 18.4772L95.1272 18.8833L93.7732 19.2386V19.5939H99.54V19.2386H98.7377C96.6315 18.8833 96.5312 17.5127 96.431 15.5838V8.32488L101.997 15.7868L103.351 17.5127L104.906 20H105.307V8.32488L105.708 7.36041L105.909 7.00508L106.26 6.80203L107.212 6.59899V6.14213V6.14213ZM107.212 10L106.811 11.5228L106.661 13.0457L106.811 14.4162L107.012 15.736L107.212 15.9391V10V10ZM93.7732 15.33V10.3553L94.1744 11.5228V14.2132L93.7732 15.33ZM93.4222 6.14213H93.8234V6.54823H93.4222V6.14213ZM93.7732 10.3553V15.33L93.1715 16.6497L92.2187 17.8173L91.2659 18.7817L90.3131 19.3401L89.1598 19.7462L87.8058 19.9492V19.5432L88.7586 19.3401L89.3604 19.1371C91.2659 17.4619 90.8146 17.2589 91.3161 14.7208V11.6751C91.0653 9.89848 90.9149 6.90356 88.8087 6.29442L88.0566 6.09138H87.856V5.73604H88.0566C91.5166 6.29442 91.5166 6.64975 93.6228 9.59391L93.7732 10.3553ZM93.7732 19.5432H93.5726V19.1878H93.7732V19.5432ZM80.7352 14.0102V15.33L80.5346 16.4975C78.4786 21.7259 71.7089 20.5584 70.004 15.9391L69.8034 14.6193L69.6028 13.0964L69.8034 11.5736L70.004 10.2538L70.5556 9.13706L71.3077 7.96955L72.2605 7.00508L73.2133 6.44671L74.3667 6.04061L75.7206 5.83757L76.4728 6.04061L77.4256 6.24366L78.0273 6.64975L78.7795 7.41117H78.9801L79.5819 6.64975L79.983 5.68528H80.1836V11.8782H79.983L79.7824 10.5076L79.3813 9.3401C78.1778 4.67005 72.2605 4.82234 72.2605 11.269V14.3147C72.3107 20.8629 78.5288 20.8629 80.1335 16.2437L80.3341 15.2792V13.9594H80.7352V14.0102ZM87.856 5.73604L86.7026 5.93909C80.0332 7.61422 79.7824 17.868 86.502 19.7462L87.856 19.9492V19.5432L87.1038 19.3401C83.5936 18.4772 83.3428 6.90356 87.1038 6.29442L87.856 6.09138V5.73604Z" fill="black"/>
<path fill-rule="evenodd" clip-rule="evenodd" d="M172.051 19.1878H173.756L174.308 18.9848H174.509V16.7005L174.709 11.5228L174.509 8.27411V6.95431L174.308 6.75126L173.756 6.54822H172.051V6.14213H179.724V6.54822H178.019L177.417 6.75126L177.216 6.95431L177.016 8.6802V17.1066L177.216 18.8325L177.417 19.0355L178.019 19.2386H179.724V19.5939H172.051V19.1878ZM182.783 6.70051H182.582V15.33L182.783 17.2589L183.184 18.4264L183.585 18.8325L183.986 19.1878H184.738L185.491 19.3909V19.5939H181.83L179.924 19.797V19.4416L181.078 19.2386L181.83 18.8833L182.231 18.3249L182.432 17.1574L182.231 9.3401V7.96954L181.83 7.20812L181.429 6.80203L181.078 6.59899H179.924V6.19289H185.089L188.148 15.7868L191.007 6.19289H196.372V6.59899H194.667L194.266 6.80203H194.116L193.915 8.88325V18.0711L194.116 19.0355H194.266L194.667 19.2386L196.372 19.4416V19.6447H188.9V19.4416L191.207 19.2386L191.408 19.0355L191.608 18.2741V6.95431H191.207L189.302 13.2995L188.349 16.5482L187.597 19.5939H186.794L182.783 6.70051ZM197.175 19.1878H198.88L199.481 18.9848L199.682 18.7817L199.882 14.5685V8.22335L199.682 6.90355L199.481 6.70051L199.08 6.49746H197.175V6.09137H209.46V11.269H209.059L208.859 9.94924C208.357 5.7868 205.95 6.64974 202.691 6.49746L202.289 6.70051V8.22335L202.089 12.2335H202.841L204.396 12.0305L204.797 11.8274L205.148 11.4213L205.549 11.0152L205.75 10.4569V8.52791H206.151V16.3959H205.75V14.6701L205.549 13.9086L205.348 13.5533L204.997 13.1472L204.596 12.7411L204.045 12.5381H202.139L202.34 16.9543V18.8833H202.54L202.891 19.0863H205.95L206.903 18.8833L207.655 18.5279L208.207 18.1726L208.608 17.6142L209.159 16.6497L209.36 15.533L209.761 14.0102H209.962V19.5432H197.124V19.1878H197.175ZM211.567 19.9492V13.8071H211.767L212.168 15.1269L212.72 16.2944L213.271 17.2589L213.823 18.2234L214.575 18.7817L215.127 19.1371L216.08 19.4924H216.882L218.035 19.2893L218.988 18.8833L219.54 17.9188V16.1929L219.339 15.6345L218.938 15.0761L218.537 14.7208L217.383 14.1624L215.478 13.7563L213.372 12.9949C208.407 10.7107 211.817 3.70558 216.832 6.09137L217.584 6.64974L218.537 7.41116L218.938 7.20812L219.139 6.80203L219.49 5.63451H219.891V10.8122H219.49L219.289 9.69543L218.888 8.73097L218.286 7.96954C217.383 6.59898 216.481 5.93908 214.826 6.04061H213.673L212.72 6.59899L212.118 7.36041L211.918 8.32487L212.118 8.88325L212.319 9.44162L212.72 9.84772L213.071 10.203L214.425 10.6091L216.33 11.1675L218.437 11.7259C223.551 14.0609 219.941 22.2335 214.625 19.1878L213.823 18.6294L212.87 17.665L212.519 18.0711L212.118 18.4264L211.516 19.7462H211.567V19.9492Z" fill="black"/>
<path fill-rule="evenodd" clip-rule="evenodd" d="M49.2936 18.9848H52.0015L52.8038 18.7817L53.0044 18.3756L53.205 16.4467V3.04569L53.0044 0.964468L52.8038 0.761425L52.0015 0.558375L49.2936 0.355332V0H67.8978V7.66498H67.2961L67.0955 5.533C65.9923 0.101524 62.3818 -7.86661e-07 57.5176 0.558375L57.1164 0.761425L56.9158 3.04569V8.98478H58.0692C61.1783 8.88325 62.0307 8.17259 62.2815 5.17767L62.4821 3.65483H62.8832V15.1269H62.4821L62.2815 13.6041C62.2815 10.8122 61.1783 9.49239 58.4704 9.39087H56.9158V15.8883L57.1164 18.5787L57.317 18.7817L58.0692 18.9848H62.4821L64.0366 18.7817L65.1899 18.2234L65.9421 17.665L66.6943 16.7005L67.4465 15.3807L67.8477 13.6548L68.1987 11.5228H68.8005V19.7462L57.8686 19.5432L49.2435 19.7462V18.9848" fill="black"/>
<path fill-rule="evenodd" clip-rule="evenodd" d="M159.565 19.1878H161.671L162.825 18.9848L163.426 18.7817L163.627 18.2234L163.827 14.3655V0.406093H161.521C159.766 0.456854 157.86 1.82741 157.659 3.65483L157.308 5.93909H157.108V0H174.358V5.93909L173.957 3.65483L173.556 2.28427L173.004 1.52285L172.252 0.964468L171.299 0.558375L169.945 0.355332H167.438V18.3756L167.839 18.7817L168.792 18.9848L169.945 19.1878H171.5L171.7 19.5432H159.615V19.1878" fill="black"/>
<path fill-rule="evenodd" clip-rule="evenodd" d="M2.50731 19.1878H4.61344L5.7668 18.9848L6.36856 18.7817L6.519 18.2234L6.71958 14.3655V4.41625L6.519 0.406093H4.41286L3.2595 0.60914L2.30672 0.964468L1.75511 1.52285L1.15336 2.13198L0.802337 2.8934L0.601752 3.65483L0.200585 5.93909H0V0H17.2503V5.93909L16.8992 3.65483L16.4981 2.33503L15.9465 1.52285L15.1441 0.964468L14.1914 0.60914L12.8876 0.406093H10.3802V18.4264L10.7814 18.7817L11.7342 18.9848L12.8876 19.1878H14.3919L14.5925 19.5432H2.50731V19.1878Z" fill="black"/>
<path fill-rule="evenodd" clip-rule="evenodd" d="M31.2911 6.14214H31.6422V6.54823H31.2911H32.9961L33.3973 6.75127L33.5979 6.95432L33.7984 11.5736V17.4619L33.5979 18.7817L33.3973 18.9848L32.9961 19.1878H31.2911V19.3909H31.6422V19.797H31.2911L37.0579 19.5939L44.5297 19.797V14.0609H44.1787L43.9781 15.5838C43.2761 19.6954 40.0166 19.5431 36.7069 19.0355H36.5063V17.1066L36.3058 12.6904H38.2113L38.8131 12.8934L39.2142 13.2995L39.6154 13.7056L40.0166 14.0609L40.2172 14.8223V16.5482H40.6183V8.83249H40.2172V10.5584C39.8661 12.2335 38.7629 12.0305 37.3588 12.2843H36.4061L36.6066 8.27411V6.75127L37.0078 6.54823C40.6183 6.70051 42.4236 5.78681 43.5268 10L43.7274 11.5228H44.1286V6.14214H31.2911V6.14214ZM22.666 19.3401V19.7462L19.0053 19.5431L14.9937 19.7462V19.3401L16.8992 19.1371L17.501 18.934L17.7015 18.731V6.8528L17.501 6.64975L16.8992 6.44671H14.9937V6.04062H22.666V6.44671H21.1115L20.5097 6.64975L20.3091 6.8528L20.1086 8.37564V12.3858H26.427V7.96955L26.2264 6.80204L26.0258 6.59899L25.6748 6.39594H23.9698V5.98985H31.241H31.0404V6.39594H31.241H29.6865L29.2853 6.59899L29.0847 6.80204L28.8841 8.12184V17.1066L29.0847 18.8325H29.2853L29.6865 19.0355L31.241 19.2386V19.0355H31.0404V19.5939H31.241L27.5803 19.3909L23.9197 19.5939V19.1878L25.424 18.9848H25.9757L26.1762 18.7817L26.3768 17.0558V12.8426H20.0584V17.0558L20.259 18.5787L20.6602 18.7817L21.2118 18.9848L22.666 19.3401Z" fill="black"/>
<path fill-rule="evenodd" clip-rule="evenodd" d="M143.067 19.1878H143.267V19.5432H143.067V19.1878ZM143.067 15.1269L143.669 16.6497C145.875 21.0152 152.996 21.3198 153.999 15.33V14.0102H153.648V15.33L153.447 16.2944C151.893 20.6599 145.574 21.1675 145.574 14.3655L145.374 12.8426L145.574 11.3198L145.775 10L145.975 8.83249L146.326 7.86803L146.928 7.10661L147.48 6.54823L148.232 6.34518L148.984 6.14213C151.692 6.80203 150.739 6.29442 152.244 8.4264L152.645 9.39087L152.845 10.5584L153.046 11.9289H153.447V5.58376H153.247L152.845 6.54823L152.294 7.30965H152.093L151.341 6.54823L150.589 6.14213L149.837 5.93909L149.084 5.73604L147.73 5.93909L146.577 6.34518L145.624 6.90356L144.672 7.86803L143.719 9.18782L143.117 10.9137V15.1269H143.067ZM143.067 6.14213H143.267V6.54823H143.067V6.14213ZM143.067 6.14213H135.595V6.54823H137.35L137.902 6.75127L138.102 6.95432V8.27411L138.303 11.5228L138.102 16.7005V18.8325L137.902 19.0355L137.35 19.2386H135.595V19.5939H143.067V19.2386L141.512 19.0355H140.961L140.76 18.8325V17.1066L140.56 12.6904L140.76 8.6802V6.95432L140.961 6.75127L141.512 6.54823H143.067V6.14213ZM143.067 10.9137V15.1269L142.866 14.1624V11.8782L143.067 10.9137ZM118.896 19.5432V19.3401L120.05 19.1371L120.601 18.7817L121.153 18.0203V16.8528L120.952 9.18782V7.86803L120.551 7.10661L120 6.75127L118.846 6.54823V6.14213H124.112L126.97 15.736H127.171L130.229 6.14213H135.595V6.54823H133.89L133.338 6.75127L133.138 6.95432V18.8325L133.338 19.0355L133.89 19.2386H135.595V19.5939H127.923V19.2386H130.229L130.631 18.8833V7.00508H130.229L128.324 13.2995L127.371 16.3452L126.619 19.5939H125.867L121.855 6.75127H121.454L121.654 15.3807V17.3096L122.005 18.4772L122.407 18.8833L122.958 19.0863L123.51 19.2893H124.463V19.6447H118.896V19.5432ZM118.896 14.7716L119.097 13.8071L119.247 12.8426L119.097 11.8782L118.896 10.9137V14.7716ZM118.746 6.54823H118.947V6.14213H118.746V6.54823ZM118.896 10.9137L118.495 9.59391C117.743 7.7665 115.938 6.09138 113.882 5.93909L112.929 5.73604V6.09138L113.731 6.29442L114.484 6.49746L115.035 7.05584L115.436 8.0203L115.787 8.98478L116.189 10.3046L116.389 11.6244V14.6701L116.189 15.9899L115.787 16.9543L115.436 17.9188L115.035 18.4772L114.484 19.0355L113.731 19.2386L112.929 19.4416V19.8477L114.082 19.6447C116.59 19.0863 118.345 17.1574 118.896 14.6701V10.9137V10.9137ZM118.896 19.3401H118.696V19.5432H118.896V19.3401ZM112.979 5.73604V6.09138L112.026 6.29442L111.475 6.49746C109.67 8.22335 109.92 8.73096 109.569 11.066V14.1117C109.82 15.9898 109.92 17.7665 111.475 19.0863L112.227 19.2893L112.979 19.4924V19.8985H112.779L111.625 19.6954L110.472 19.2893L109.319 18.731L108.366 17.7665L107.814 17.0051L107.212 15.8376V9.89848L107.814 8.57868L109.72 6.64975L110.672 6.24366L111.826 5.83757L112.979 5.73604ZM107.814 6.14213H107.212V6.54823H107.814V6.14213ZM107.212 6.14213H102.047V6.54823H102.8L103.552 6.75127L104.153 6.95432L104.504 7.30965L104.906 8.47716V15.5838L97.8351 6.1929H93.7732V6.59899H94.5756L95.1272 6.80203L95.7289 7.15736L96.1301 7.91878L96.3307 15.5838V16.1421L96.1301 17.5127L95.7289 18.4772L95.1272 18.8833L93.7732 19.2386V19.5939H99.54V19.2386H98.7377C96.6315 18.8833 96.5312 17.5127 96.431 15.5838V8.32488L101.997 15.7868L103.351 17.5127L104.906 20H105.307V8.32488L105.708 7.36041L105.909 7.00508L106.26 6.80203L107.212 6.59899V6.14213V6.14213ZM107.212 10L106.811 11.5228L106.661 13.0457L106.811 14.4162L107.012 15.736L107.212 15.9391V10V10ZM93.7732 15.33V10.3553L94.1744 11.5228V14.2132L93.7732 15.33ZM93.4222 6.14213H93.8234V6.54823H93.4222V6.14213ZM93.7732 10.3553V15.33L93.1715 16.6497L92.2187 17.8173L91.2659 18.7817L90.3131 19.3401L89.1598 19.7462L87.8058 19.9492V19.5432L88.7586 19.3401L89.3604 19.1371C91.2659 17.4619 90.8146 17.2589 91.3161 14.7208V11.6751C91.0653 9.89848 90.9149 6.90356 88.8087 6.29442L88.0566 6.09138H87.856V5.73604H88.0566C91.5166 6.29442 91.5166 6.64975 93.6228 9.59391L93.7732 10.3553ZM93.7732 19.5432H93.5726V19.1878H93.7732V19.5432ZM80.7352 14.0102V15.33L80.5346 16.4975C78.4786 21.7259 71.7089 20.5584 70.004 15.9391L69.8034 14.6193L69.6028 13.0964L69.8034 11.5736L70.004 10.2538L70.5556 9.13706L71.3077 7.96955L72.2605 7.00508L73.2133 6.44671L74.3667 6.04061L75.7206 5.83757L76.4728 6.04061L77.4256 6.24366L78.0273 6.64975L78.7795 7.41117H78.9801L79.5819 6.64975L79.983 5.68528H80.1836V11.8782H79.983L79.7824 10.5076L79.3813 9.3401C78.1778 4.67005 72.2605 4.82234 72.2605 11.269V14.3147C72.3107 20.8629 78.5288 20.8629 80.1335 16.2437L80.3341 15.2792V13.9594H80.7352V14.0102ZM87.856 5.73604L86.7026 5.93909C80.0332 7.61422 79.7824 17.868 86.502 19.7462L87.856 19.9492V19.5432L87.1038 19.3401C83.5936 18.4772 83.3428 6.90356 87.1038 6.29442L87.856 6.09138V5.73604Z" fill="black"/>
<path fill-rule="evenodd" clip-rule="evenodd" d="M172.051 19.1878H173.756L174.308 18.9848H174.509V16.7005L174.709 11.5228L174.509 8.27411V6.95431L174.308 6.75126L173.756 6.54822H172.051V6.14213H179.724V6.54822H178.019L177.417 6.75126L177.216 6.95431L177.016 8.6802V17.1066L177.216 18.8325L177.417 19.0355L178.019 19.2386H179.724V19.5939H172.051V19.1878ZM182.783 6.70051H182.582V15.33L182.783 17.2589L183.184 18.4264L183.585 18.8325L183.986 19.1878H184.738L185.491 19.3909V19.5939H181.83L179.924 19.797V19.4416L181.078 19.2386L181.83 18.8833L182.231 18.3249L182.432 17.1574L182.231 9.3401V7.96954L181.83 7.20812L181.429 6.80203L181.078 6.59899H179.924V6.19289H185.089L188.148 15.7868L191.007 6.19289H196.372V6.59899H194.667L194.266 6.80203H194.116L193.915 8.88325V18.0711L194.116 19.0355H194.266L194.667 19.2386L196.372 19.4416V19.6447H188.9V19.4416L191.207 19.2386L191.408 19.0355L191.608 18.2741V6.95431H191.207L189.302 13.2995L188.349 16.5482L187.597 19.5939H186.794L182.783 6.70051ZM197.175 19.1878H198.88L199.481 18.9848L199.682 18.7817L199.882 14.5685V8.22335L199.682 6.90355L199.481 6.70051L199.08 6.49746H197.175V6.09137H209.46V11.269H209.059L208.859 9.94924C208.357 5.7868 205.95 6.64974 202.691 6.49746L202.289 6.70051V8.22335L202.089 12.2335H202.841L204.396 12.0305L204.797 11.8274L205.148 11.4213L205.549 11.0152L205.75 10.4569V8.52791H206.151V16.3959H205.75V14.6701L205.549 13.9086L205.348 13.5533L204.997 13.1472L204.596 12.7411L204.045 12.5381H202.139L202.34 16.9543V18.8833H202.54L202.891 19.0863H205.95L206.903 18.8833L207.655 18.5279L208.207 18.1726L208.608 17.6142L209.159 16.6497L209.36 15.533L209.761 14.0102H209.962V19.5432H197.124V19.1878H197.175ZM211.567 19.9492V13.8071H211.767L212.168 15.1269L212.72 16.2944L213.271 17.2589L213.823 18.2234L214.575 18.7817L215.127 19.1371L216.08 19.4924H216.882L218.035 19.2893L218.988 18.8833L219.54 17.9188V16.1929L219.339 15.6345L218.938 15.0761L218.537 14.7208L217.383 14.1624L215.478 13.7563L213.372 12.9949C208.407 10.7107 211.817 3.70558 216.832 6.09137L217.584 6.64974L218.537 7.41116L218.938 7.20812L219.139 6.80203L219.49 5.63451H219.891V10.8122H219.49L219.289 9.69543L218.888 8.73097L218.286 7.96954C217.383 6.59898 216.481 5.93908 214.826 6.04061H213.673L212.72 6.59899L212.118 7.36041L211.918 8.32487L212.118 8.88325L212.319 9.44162L212.72 9.84772L213.071 10.203L214.425 10.6091L216.33 11.1675L218.437 11.7259C223.551 14.0609 219.941 22.2335 214.625 19.1878L213.823 18.6294L212.87 17.665L212.519 18.0711L212.118 18.4264L211.516 19.7462H211.567V19.9492Z" fill="black"/>
<path fill-rule="evenodd" clip-rule="evenodd" d="M49.2936 18.9848H52.0015L52.8038 18.7817L53.0044 18.3756L53.205 16.4467V3.04569L53.0044 0.964468L52.8038 0.761425L52.0015 0.558375L49.2936 0.355332V0H67.8978V7.66498H67.2961L67.0955 5.533C65.9923 0.101524 62.3818 -7.86661e-07 57.5176 0.558375L57.1164 0.761425L56.9158 3.04569V8.98478H58.0692C61.1783 8.88325 62.0307 8.17259 62.2815 5.17767L62.4821 3.65483H62.8832V15.1269H62.4821L62.2815 13.6041C62.2815 10.8122 61.1783 9.49239 58.4704 9.39087H56.9158V15.8883L57.1164 18.5787L57.317 18.7817L58.0692 18.9848H62.4821L64.0366 18.7817L65.1899 18.2234L65.9421 17.665L66.6943 16.7005L67.4465 15.3807L67.8477 13.6548L68.1987 11.5228H68.8005V19.7462L57.8686 19.5432L49.2435 19.7462V18.9848" fill="black"/>
<path fill-rule="evenodd" clip-rule="evenodd" d="M159.565 19.1878H161.671L162.825 18.9848L163.426 18.7817L163.627 18.2234L163.827 14.3655V0.406093H161.521C159.766 0.456854 157.86 1.82741 157.659 3.65483L157.308 5.93909H157.108V0H174.358V5.93909L173.957 3.65483L173.556 2.28427L173.004 1.52285L172.252 0.964468L171.299 0.558375L169.945 0.355332H167.438V18.3756L167.839 18.7817L168.792 18.9848L169.945 19.1878H171.5L171.7 19.5432H159.615V19.1878" fill="black"/>
</svg>
